<svg width="1080" height="1080" xmlns="http://www.w3.org/2000/svg"><g opacity=".05" fill="#fff"><path d="M-131.534 1066.726c-.14-30.652 10.437-61.516 30.589-89.25 18.62-25.626 45.036-47.669 74.381-62.066 27.14-13.319 57.387-21.918 92.468-26.288 28.54-3.56 60.373-4.246 97.322-2.104 22.567 1.306 45.477 3.483 67.633 5.59 41.207 3.915 83.817 7.965 125.844 6.568 52.458-1.744 126.205-13.858 179.645-61.645 33.706-30.136 55.93-71.264 77.422-111.041 11.817-21.869 24.038-44.482 37.997-64.926 15.656-22.924 31.917-40.662 49.71-54.234 23.384-17.828 51.793-30.478 86.857-38.67 31.307-7.313 65.083-10.514 97.744-13.61 44.796-4.242 91.11-8.634 133.091-23.592 76.242-27.17 138.357-92.11 162.11-169.48l.334.102c-11.688 38.077-32.93 73.946-61.423 103.734-28.492 29.789-63.383 52.6-100.902 65.971-42.024 14.976-88.362 19.368-133.175 23.613-68.095 6.454-132.415 12.549-184.423 52.21-39.603 30.2-64.01 75.368-87.613 119.049-21.506 39.801-43.744 80.957-77.495 111.135-22.642 20.246-50.828 35.8-83.782 46.238-28.792 9.118-61.123 14.331-96.087 15.491-42.05 1.4-84.67-2.65-125.887-6.568-22.153-2.104-45.06-4.28-67.62-5.59-50.613-2.933-125.332-3.183-189.616 28.36-62.943 30.882-105.049 91.566-104.776 151.003h-.348"/><path d="M-134.737 1056.4l-.347-.03c2.392-29.523 15.255-58.458 37.2-83.677 20.289-23.317 47.24-42.518 77.94-55.53 27.336-11.586 57.308-18.9 91.629-22.362 28.82-2.908 60.23-3.006 96.027-.3 20.581 1.564 41.497 3.804 61.724 5.97 42.626 4.562 86.703 9.281 130.297 7.975 51.698-1.56 124.565-13.293 178.102-60.3 15.44-13.559 29.883-30.569 44.155-52.005 12.287-18.452 23.345-38.45 34.04-57.787 16.262-29.401 33.073-59.799 54.485-85.227 10.358-12.3 20.987-22.561 32.495-31.366 23.386-17.894 51.792-30.714 86.836-39.195 31.282-7.571 65.023-11.096 97.653-14.509 43.444-4.538 88.369-9.236 129.284-23.467 75.194-26.156 137.814-87.78 163.433-160.831l.328.115c-12.598 35.928-34.382 69.826-62.99 98.033-28.712 28.305-63.515 50.093-100.656 63.01-40.957 14.248-85.899 18.943-129.364 23.488-65.034 6.799-132.286 13.827-184.312 53.635-11.49 8.787-22.098 19.03-32.439 31.314-21.39 25.4-38.195 55.783-54.446 85.168-10.699 19.343-21.76 39.348-34.058 57.81-14.286 21.461-28.75 38.495-44.214 52.075-22.607 19.848-50.598 35.092-83.196 45.304-28.622 8.968-60.625 14.042-95.126 15.084-43.618 1.302-87.707-3.417-130.344-7.98-20.225-2.166-41.138-4.402-61.713-5.965-77.633-5.869-137.211 1.32-187.494 22.634-51.902 21.997-109.35 70.042-114.929 138.914"/><path d="M-138.289 1046.073l-.343-.055c2.529-14.673 7.721-28.931 15.432-42.382 7.26-12.663 16.788-24.682 28.318-35.723 21.549-20.635 49.751-37.576 81.56-48.992 51.003-18.309 111.687-23.847 185.522-16.93 18.533 1.749 37.386 4.005 55.618 6.19 44.103 5.279 89.707 10.736 134.945 9.542 50.94-1.383 122.921-12.733 176.56-58.96 15.453-13.322 29.916-29.976 44.213-50.915 12.56-18.378 23.857-38.338 34.786-57.64 16.192-28.597 32.933-58.166 54.015-83.005 10.288-12.127 20.823-22.269 32.205-31.007 23.415-17.975 51.841-30.983 86.899-39.763 31.292-7.84 65.03-11.699 97.657-15.432 42.037-4.81 85.509-9.78 125.303-23.279 74.124-25.139 137.25-83.45 164.75-152.18l.323.132c-13.513 33.773-35.837 65.7-64.56 92.325-28.931 26.821-63.651 47.589-100.401 60.054-39.83 13.51-83.319 18.483-125.377 23.296-65.037 7.44-132.29 15.133-184.382 55.122-11.36 8.724-21.878 18.849-32.153 30.955-21.06 24.815-37.791 54.37-53.976 82.953-10.932 19.308-22.234 39.275-34.8 57.668-14.317 20.963-28.799 37.638-44.276 50.977-53.715 46.297-125.78 57.664-176.779 59.047-45.262 1.195-90.878-4.266-134.994-9.546-18.23-2.18-37.08-4.437-55.609-6.19-73.782-6.909-134.418-1.378-185.372 16.913-68.897 24.728-115.657 72.143-125.084 126.826"/><path d="M-141.842 1035.75l-.336-.09c7.454-27.594 24.357-52.001 50.242-72.543 22.64-17.964 52.114-32.64 85.235-42.44 27.249-8.067 57.459-12.978 89.79-14.604 28.971-1.456 60.462-.31 93.598 3.403 16.417 1.86 33.13 4.085 49.291 6.237 45.645 6.078 92.843 12.36 139.815 11.284 50.173-1.201 121.267-12.175 175.017-57.622 15.467-13.081 29.948-29.377 44.276-49.821 12.838-18.302 24.39-38.234 35.563-57.508 16.108-27.789 32.766-56.525 53.51-80.773 10.218-11.949 20.659-21.972 31.915-30.644 23.47-18.08 51.946-31.29 87.06-40.383 31.34-8.119 65.11-12.319 97.771-16.38 40.568-5.043 82.514-10.26 121.11-23.01 73.034-24.126 136.668-79.126 166.073-143.53l.317.144c-14.436 31.62-37.304 61.572-66.127 86.62-29.162 25.34-63.79 45.084-100.151 57.096-38.631 12.761-80.595 17.978-121.18 23.025-65.114 8.097-132.443 16.47-184.66 56.693-11.24 8.658-21.66 18.664-31.864 30.596-20.726 24.223-37.374 52.945-53.475 80.72-11.176 19.28-22.732 39.216-35.576 57.536-14.346 20.468-28.848 36.785-44.34 49.887-53.822 45.51-125 56.498-175.232 57.703-46.993 1.072-94.21-5.21-139.868-11.288-16.16-2.152-32.87-4.378-49.284-6.234-69.997-7.85-131.652-4.085-183.25 11.183-72.006 21.308-121.298 63.132-135.24 114.744"/><path d="M-145.397 1025.427l-.326-.125c9.9-26.4 28.968-48.944 56.678-66.995 23.874-15.554 53.806-27.625 88.965-35.876 52.995-12.44 113.978-14.28 181.254-5.468 14.23 1.884 28.723 4.02 42.738 6.084 47.253 6.966 96.117 14.168 144.911 13.224 49.407-1.023 119.61-11.622 173.47-56.281 15.488-12.841 29.99-28.782 44.34-48.728 13.13-18.236 24.947-38.14 36.37-57.389 16.017-26.981 32.578-54.878 52.977-78.53 10.149-11.771 20.492-21.676 31.627-30.282 23.554-18.208 52.12-31.641 87.334-41.062 31.429-8.411 65.281-12.96 98.016-17.359 39.017-5.241 79.362-10.66 116.676-22.652 73-23.463 135.578-73.887 167.393-134.884l.306.164c-15.365 29.46-38.773 57.441-67.694 80.915-29.391 23.857-63.937 42.577-99.9 54.136-37.343 12.002-77.701 17.425-116.732 22.666-65.282 8.77-132.781 17.839-185.187 58.35-11.113 8.593-21.443 18.484-31.578 30.238-20.378 23.627-36.928 51.51-52.938 78.478-11.43 19.256-23.248 39.167-36.388 57.413-14.367 19.97-28.89 35.932-44.399 48.794-53.941 44.722-124.224 55.334-173.686 56.362-2.922.055-5.848.083-8.77.083-45.903 0-91.759-6.76-136.199-13.31-14.014-2.066-28.505-4.201-42.732-6.085-67.234-8.805-128.175-6.966-181.129 5.46-53.477 12.553-122.11 40.55-145.397 102.659"/><path d="M-148.953 1015.1l-.313-.153c6.387-13.098 15.222-25.062 26.26-35.555 10.212-9.714 22.595-18.435 36.803-25.926 24.905-13.134 55.242-22.711 92.745-29.28 27.461-4.81 56.99-7.164 87.764-7.014 29.457.146 60.193 2.598 91.356 7.279 11.962 1.814 24.15 3.796 35.937 5.715 48.932 7.955 99.527 16.178 150.254 15.38 48.634-.85 117.937-11.072 171.927-54.944 15.506-12.6 30.029-28.183 44.402-47.634 13.437-18.166 25.526-38.053 37.217-57.285 15.91-26.163 32.359-53.22 52.402-76.266 10.076-11.594 20.33-21.384 31.338-29.924 23.673-18.364 52.374-32.041 87.745-41.81 31.568-8.721 65.553-13.625 98.42-18.369 37.374-5.395 76.019-10.974 111.944-22.195 71.825-22.43 134.895-69.621 168.716-126.234l.3.181c-16.314 27.302-40.262 53.308-69.266 75.207-29.635 22.377-64.09 40.077-99.646 51.18-35.953 11.228-74.611 16.808-112 22.206-65.545 9.46-133.327 19.242-185.997 60.11-10.995 8.525-21.23 18.298-31.293 29.878-20.022 23.021-36.464 50.065-52.363 76.217-11.699 19.24-23.791 39.13-37.238 57.31-14.387 19.475-28.931 35.078-44.461 47.7-22.478 18.267-49.682 32.253-80.853 41.573-27.932 8.352-58.646 12.876-91.29 13.447-2.303.039-4.619.056-6.92.056-48.436 0-96.669-7.843-143.394-15.443-11.786-1.915-23.973-3.897-35.933-5.711-64.482-9.69-124.71-9.776-179.008-.265-81.955 14.353-132.837 43.98-155.555 90.57"/><path d="M-152.51 1004.774l-.298-.18c7.659-12.574 17.696-23.781 29.832-33.31 11.152-8.752 24.466-16.39 39.575-22.7 25.356-10.592 56.942-18 96.565-22.639 54.877-6.43 116.077-4.357 176.985 5.99 9.61 1.655 19.404 3.403 28.874 5.096 50.686 9.062 103.1 18.43 155.86 17.79 47.853-.676 116.262-10.525 170.385-53.604 15.53-12.364 30.073-27.59 44.46-46.544 13.758-18.103 26.135-37.972 38.106-57.19 15.787-25.348 32.111-51.56 51.789-73.995 10.002-11.413 20.161-21.085 31.049-29.562 23.836-18.56 52.725-32.508 88.323-42.643 31.766-9.045 65.95-14.321 99.005-19.42 35.615-5.496 72.445-11.18 106.865-21.61 70.6-21.396 134.164-65.352 170.037-117.586l.289.198c-17.271 25.142-41.762 49.173-70.83 69.502-29.889 20.897-64.257 37.573-99.395 48.22-34.444 10.437-71.285 16.121-106.914 21.617-65.943 10.177-134.129 20.698-187.164 61.997-10.874 8.463-21.015 18.12-31.004 29.517-19.657 22.415-35.974 48.612-51.754 73.95-11.974 19.224-24.355 39.1-38.123 57.218-14.408 18.978-28.97 34.222-44.524 46.603-22.453 17.874-49.458 31.547-80.267 40.644-27.758 8.195-58.149 12.583-90.33 13.036-1.723.02-3.454.031-5.178.031-51.047 0-101.7-9.055-150.746-17.825-9.47-1.692-19.262-3.444-28.871-5.095-60.876-10.344-122.042-12.416-176.887-5.99-59.116 6.927-131.376 22.105-165.715 78.484"/><path d="M-156.07 994.448l-.279-.21c28.148-38.017 75.593-46.794 125.825-56.09 16.458-3.043 33.477-6.192 50.277-10.44 49.323-12.48 106.218-1.509 161.242 9.1 4.555.877 9.104 1.755 13.642 2.615 7.166 1.38 14.467 2.811 21.527 4.194 52.52 10.298 106.833 20.945 161.75 20.478 47.069-.505 114.572-9.978 168.84-52.262 15.558-12.127 30.12-26.995 44.525-45.454 14.094-18.037 26.772-37.903 39.031-57.114 15.652-24.53 31.836-49.89 51.13-71.703 9.934-11.236 19.995-20.79 30.764-29.204 24.049-18.796 53.193-33.048 89.1-43.576 32.042-9.393 66.497-15.05 99.82-20.517 33.724-5.538 68.593-11.26 101.356-20.88 69.303-20.35 133.366-61.073 171.363-108.94l.271.219c-38.042 47.92-102.167 88.689-171.533 109.056-32.784 9.623-67.667 15.349-101.401 20.886-66.494 10.915-135.247 22.2-188.76 64.028-10.751 8.4-20.8 17.94-30.718 29.157-19.277 21.796-35.455 47.143-51.1 71.659-12.262 19.218-24.943 39.09-39.048 57.145-14.422 18.48-29.008 33.368-44.587 45.51-22.429 17.48-49.236 30.84-79.679 39.71-27.587 8.042-57.657 12.29-89.371 12.629-1.178.01-2.355.013-3.528.013-53.754.004-106.876-10.417-158.292-20.5-7.06-1.382-14.36-2.813-21.525-4.192-4.538-.86-9.087-1.738-13.643-2.616-54.987-10.602-111.844-21.562-161.09-9.104-16.811 4.252-33.836 7.4-50.3 10.448-50.162 9.278-97.542 18.045-125.608 55.955"/><path d="M-159.628 984.118l-.261-.23c14.083-15.951 32.04-26.74 56.51-33.947 21.734-6.401 45.643-9.121 70.956-12.005 19.22-2.187 39.095-4.447 58.796-8.473 47.287-9.662 101.232 2.01 153.402 13.297a3364.39 3364.39 0 0019.35 4.151c4.621.986 9.247 1.979 13.878 2.971 54.44 11.685 110.732 23.767 167.94 23.488 46.283-.334 112.877-9.438 167.299-50.925 15.585-11.887 30.168-26.396 44.586-44.357 14.447-17.981 27.438-37.847 40.004-57.058 15.498-23.7 31.526-48.209 50.43-69.398 9.86-11.054 19.828-20.49 30.474-28.84 24.324-19.083 53.806-33.683 90.128-44.633 32.404-9.765 67.228-15.818 100.906-21.67 31.662-5.499 64.404-11.19 95.328-19.973 67.907-19.288 132.463-56.78 172.686-100.29l.254.236c-40.26 43.556-104.877 81.086-172.847 100.392-30.94 8.787-63.69 14.477-95.361 19.98-67.229 11.681-136.745 23.756-190.878 66.229-10.632 8.341-20.586 17.762-30.429 28.802-18.887 21.169-34.908 45.667-50.402 69.356-12.566 19.218-25.564 39.091-40.024 57.083-14.433 17.985-29.036 32.515-44.646 44.42-22.408 17.082-49.017 30.129-79.094 38.777-27.413 7.881-57.16 11.99-88.414 12.217-.648.004-1.306.004-1.954.004-56.574 0-112.22-11.942-166.059-23.498-4.63-.996-9.256-1.989-13.877-2.97-6.437-1.36-13.002-2.78-19.351-4.152-52.135-11.281-106.044-22.945-153.26-13.298-19.715 4.03-39.598 6.29-58.826 8.481-49.613 5.646-96.476 10.981-127.244 45.833"/><path d="M383.513 978.413c-59.52.004-117.748-13.656-174.074-26.87l-5.906-1.382c-8.133-1.888-16.422-3.884-24.438-5.816-49.49-11.936-100.665-24.275-146.049-17.359-21.974 3.35-44.026 4.354-65.351 5.326-49.978 2.277-97.184 4.426-130.883 36.9l-.241-.251c33.793-32.564 81.063-34.717 131.108-36.998 21.317-.971 43.36-1.974 65.315-5.321 45.453-6.928 96.66 5.422 146.183 17.361 8.015 1.933 16.303 3.932 24.435 5.816l5.906 1.387c56.303 13.206 114.52 26.859 173.995 26.859h.46c45.489-.164 111.17-8.899 165.756-49.585 15.62-11.646 30.224-25.8 44.646-43.266 14.822-17.922 28.144-37.795 41.023-57.017 15.332-22.871 31.185-46.52 49.686-67.071 9.783-10.873 19.656-20.19 30.185-28.482 24.679-19.438 54.596-34.43 91.461-45.833 32.881-10.174 68.196-16.638 102.349-22.886 29.387-5.377 59.778-10.94 88.636-18.852 66.365-18.205 131.416-52.465 174.01-91.646l.237.258c-20.301 18.671-46.415 36.785-75.52 52.377-31.203 16.714-64.387 29.952-98.636 39.345-28.872 7.92-59.27 13.482-88.665 18.86-68.203 12.482-138.726 25.385-193.656 68.652-10.515 8.279-20.374 17.581-30.14 28.44-18.487 20.535-34.333 44.172-49.654 67.033-12.89 19.225-26.215 39.109-41.048 57.045-14.44 17.487-29.064 31.658-44.709 43.326-22.387 16.686-48.804 29.419-78.508 37.843-27.24 7.725-56.665 11.7-87.453 11.807h-.46"/><path d="M387.031 977.88H387c-27.594-.07-57.257-3.173-90.682-9.487-30.565-5.774-61.24-13.628-88.304-20.555-50.934-12.907-107.592-22.631-168.4-28.9-70.861-7.304-151.176-15.582-206.361 30.133l-.222-.269c12.873-10.664 27.279-18.685 44.04-24.518 15.013-5.224 31.537-8.55 50.515-10.163 34.768-2.953 72.848.428 112.064 4.472 60.825 6.269 117.5 15.996 168.45 28.907 57.375 14.687 116.704 29.872 178.903 30.032h.028c63.16 0 121.465-17.132 164.185-48.244 15.655-11.41 30.28-25.204 44.709-42.172 15.212-17.874 28.879-37.76 42.096-56.996 15.143-22.036 30.802-44.823 48.884-64.728 9.707-10.692 19.486-19.89 29.896-28.123 25.136-19.873 55.617-35.322 93.192-47.23 33.505-10.615 69.458-17.504 104.23-24.17 26.845-5.145 54.606-10.466 81.106-17.47 64.582-17.073 130.131-48.1 175.344-82.998l.213.275c-21.423 16.536-48.08 32.672-77.088 46.67-31.568 15.233-64.668 27.475-98.378 36.387-26.514 7.008-54.28 12.33-81.131 17.477-69.478 13.318-141.32 27.089-197.268 71.334-10.4 8.22-20.166 17.407-29.858 28.082-18.069 19.886-33.717 42.664-48.853 64.689-13.224 19.242-26.894 39.14-42.12 57.023-14.447 16.993-29.089 30.806-44.772 42.233-22.37 16.292-48.588 28.712-77.924 36.914-27.057 7.56-56.149 11.395-86.463 11.395"/><path d="M391.374 977.35c-.45 0-.895-.003-1.344-.003-27.657-.178-57.118-3.466-90.072-10.051-30.047-6.008-59.683-14.053-87.463-21.782-48.843-13.457-103.233-24.786-166.278-34.625-77.29-12.068-157.21-24.543-216.523 18.04l-.204-.281c14.148-10.156 29.715-17.48 47.592-22.384 15.948-4.375 33.367-6.708 53.25-7.133 37.706-.8 79.27 5.688 115.939 11.413 63.058 9.843 117.46 21.172 166.317 34.636 61.78 17.184 117.771 31.44 177.445 31.82.436 0 .87.003 1.306.003 61.537 0 118.794-16.637 161.36-46.91 15.701-11.169 30.346-24.605 44.772-41.079 15.63-17.825 29.66-37.736 43.228-56.995 14.934-21.197 30.377-43.114 48.028-62.363 9.626-10.504 19.312-19.587 29.61-27.761 25.717-20.423 56.937-36.406 95.435-48.864 34.316-11.106 71.112-18.448 106.692-25.55 23.95-4.778 48.713-9.716 72.483-15.759 63.296-16.094 127.69-43.193 176.671-74.35l.188.292c-49.013 31.178-113.444 58.295-176.775 74.396-23.774 6.043-48.543 10.985-72.498 15.766-71.146 14.193-144.716 28.873-201.98 74.34-10.284 8.164-19.956 17.233-29.569 27.727-17.636 19.232-33.072 41.138-48 62.328-13.575 19.263-27.61 39.184-43.248 57.023-14.447 16.494-29.113 29.948-44.834 41.135-22.36 15.899-48.38 28.005-77.335 35.98-26.49 7.294-54.809 10.992-84.193 10.992"/><path d="M395.682 976.821c-.874 0-1.748-.004-2.622-.01-61.44-.627-120.676-16.954-176.084-33.623-61.081-18.215-122.94-31.756-164.156-40.355l-1.026-.212c-79.573-16.606-161.855-33.776-225.66 6.164l-.184-.296c15.362-9.616 32.02-16.233 50.923-20.224 16.83-3.556 35.061-4.932 55.738-4.207 38.386 1.344 79.497 9.922 119.255 18.222l1.026.212c41.221 8.603 103.09 22.144 164.183 40.365 55.385 16.659 114.594 32.979 175.988 33.606 60.883.463 118.105-15.718 161.124-45.565 15.746-10.93 30.412-24.01 44.834-39.99 16.066-17.776 30.478-37.725 44.416-57.016 14.704-20.35 29.91-41.393 47.111-59.977 9.414-10.177 19.277-19.396 29.322-27.4 26.476-21.112 58.657-37.735 98.374-50.816 35.389-11.657 73.285-19.466 109.934-27.02 20.576-4.242 41.856-8.627 62.384-13.635 60.13-14.67 125.01-38.617 178.004-65.702l.157.31c-53.015 27.096-117.923 51.054-178.078 65.73-20.534 5.008-41.817 9.393-62.397 13.639-73.348 15.118-149.195 30.749-208.162 77.766-10.03 7.997-19.88 17.202-29.28 27.365-17.188 18.566-32.386 39.602-47.087 59.945-13.942 19.298-28.36 39.255-44.44 57.045-14.44 16-29.127 29.098-44.894 40.041-22.349 15.505-48.173 27.298-76.75 35.047-25.925 7.032-53.481 10.591-81.953 10.591"/><path d="M399.963 976.292c-1.293 0-2.581-.007-3.877-.02-63.031-.889-123.19-18.745-174.63-35.41-55.377-17.8-110.602-32.669-162.032-46.084l-2.351-.613c-81.468-21.26-165.71-43.242-234.497-5.527l-.167-.307c16.556-9.076 34.28-15 54.182-18.103 17.709-2.762 36.735-3.212 58.167-1.373 39.772 3.41 81.779 14.37 122.403 24.972l2.351.613c51.435 13.415 106.665 28.287 162.052 46.09 51.415 16.659 111.543 34.505 174.53 35.393 59.725.696 116.394-15.014 159.58-44.224 15.795-10.69 30.481-23.415 44.893-38.9 16.53-17.73 31.349-37.725 45.677-57.058 14.45-19.5 29.39-39.662 46.126-57.567 9.33-9.988 19.096-19.089 29.032-27.04 27.48-22.004 60.935-39.404 102.282-53.196 36.81-12.277 76.176-20.576 114.239-28.604 16.55-3.49 33.66-7.098 50.256-10.97 70.837-16.54 136.623-40.157 179.336-57.052l.128.324c-42.726 16.902-108.526 40.522-179.387 57.065-16.595 3.876-33.71 7.485-50.26 10.974-76.283 16.084-155.165 32.717-216.378 81.73-9.919 7.945-19.674 17.028-28.994 27.006-16.72 17.891-31.655 38.046-46.102 57.536-14.335 19.343-29.157 39.345-45.697 57.09-14.433 15.505-29.137 28.245-44.956 38.947-22.342 15.115-47.968 26.595-76.165 34.117-25.358 6.768-52.168 10.191-79.741 10.191"/><path d="M404.208 975.77c-1.696 0-3.392-.014-5.092-.042-61.352-1.1-119.49-18.528-173.179-37.196-55.263-19.079-110.858-36.472-159.91-51.817l-1.68-.526c-84.074-26.302-171.011-53.499-245.329-17.706l-.15-.314c74.44-35.851 161.444-8.634 245.584 17.69l1.68.525c49.053 15.345 104.65 32.738 159.92 51.817 53.66 18.66 111.767 36.078 173.071 37.179 58.542.902 114.678-14.315 158.038-42.884 15.63-10.302 30.757-23.025 44.956-37.805 17.02-17.693 32.26-37.743 47.004-57.132 14.167-18.64 28.823-37.913 45.07-55.129 9.247-9.8 18.915-18.779 28.744-26.678 64.299-51.712 147.356-69.384 227.676-86.47 11.566-2.463 23.526-5.005 35.183-7.603 59.747-13.311 116.91-29.903 162.844-43.235a9987.01 9987.01 0 0117.825-5.165l.098.334c-5.743 1.658-11.692 3.382-17.828 5.165-45.935 13.332-103.108 29.927-162.862 43.242-11.66 2.595-23.62 5.14-35.187 7.603-80.281 17.08-163.297 34.74-227.533 86.4-9.815 7.89-19.472 16.857-28.705 26.647-16.237 17.198-30.885 36.465-45.05 55.098-14.746 19.4-29.994 39.456-47.028 57.163-14.217 14.802-29.363 27.538-45.015 37.854-22.342 14.722-47.77 25.888-75.58 33.184-24.793 6.51-50.865 9.8-77.564 9.8"/><path d="M408.419 975.247c-2.086 0-4.18-.02-6.273-.062-62.658-1.376-121.972-20.48-171.728-38.987-36.95-13.66-73.736-27.012-109.31-39.923-16.873-6.126-32.81-11.91-48.476-17.62-86.88-31.678-176.72-64.434-257.17-30.327l-.137-.32c19.282-8.175 39.53-12.779 61.902-14.078 19.876-1.156 40.933.348 64.374 4.597 43.75 7.934 88.181 24.132 131.15 39.802 15.666 5.708 31.602 11.493 48.475 17.619 35.575 12.914 72.361 26.264 109.313 39.923 49.729 18.497 109.008 37.593 171.614 38.965 57.372 1.136 112.95-13.62 156.495-41.546 15.69-10.062 30.837-22.415 45.019-36.712 17.539-17.657 33.229-37.774 48.403-57.229 13.865-17.776 28.2-36.154 43.943-52.663 9.156-9.612 18.73-18.469 28.454-26.32 68.506-55.34 157.38-74.019 243.324-92.08 5.217-1.097 10.428-2.191 15.62-3.295 28.12-5.96 55.537-12.176 82.055-18.187 36.235-8.22 70.46-15.98 99.945-21.559l.066.342c-29.482 5.58-63.704 13.339-99.935 21.555-26.518 6.014-53.938 12.231-82.058 18.19-5.196 1.1-10.403 2.198-15.62 3.291-85.906 18.055-174.738 36.726-243.181 92.012-9.71 7.843-19.27 16.69-28.42 26.292-15.728 16.494-30.06 34.87-43.918 52.635-15.181 19.461-30.878 39.588-48.431 57.26-14.203 14.318-29.367 26.685-45.078 36.76-22.345 14.332-47.578 25.181-74.99 32.255-24.238 6.251-49.582 9.41-75.427 9.41"/><path d="M412.605 974.728c-2.473 0-4.952-.031-7.432-.09-27.768-.721-56.23-4.925-87.017-12.862-25.117-6.471-51.573-15.342-83.258-27.915-47.454-18.727-98.371-39.425-155.661-63.271-84.435-35.148-180.138-74.988-267.333-42.42l-.122-.324c20.58-7.687 42.011-11.633 65.518-12.054 20.915-.38 42.902 2.058 67.221 7.446 46.788 10.372 95.616 30.697 134.85 47.028 57.288 23.85 108.203 44.545 155.656 63.271 45.622 18.104 106.192 39.095 170.156 40.752 56.174 1.355 111.209-12.931 154.953-40.205 15.756-9.825 30.92-21.809 45.08-35.622 18.09-17.626 34.257-37.826 49.891-57.357 13.528-16.902 27.518-34.379 42.727-50.17 9.066-9.417 18.542-18.152 28.165-25.957 32.3-26.211 71.742-46.934 120.585-63.355 43.085-14.489 88.18-24.028 134.445-33.32 72.742-14.61 132.433-26.177 183.334-31.09l.03.344c-50.883 4.914-110.563 16.48-183.298 31.087-80.42 16.153-180.512 36.256-254.877 96.606-9.612 7.794-19.078 16.518-28.133 25.929-15.2 15.777-29.183 33.247-42.706 50.142-15.641 19.541-31.812 39.748-49.922 57.392-14.175 13.827-29.36 25.828-45.137 35.667-22.353 13.938-47.387 24.474-74.406 31.317-23.68 6.001-48.303 9.031-73.31 9.031"/><path d="M416.76 974.213c-2.849 0-5.701-.042-8.557-.122-64.877-1.947-124.301-23.77-168.824-42.567-52.33-21.997-104.719-46.164-153.537-69.004-100.111-46.836-190.092-83.266-277.494-54.509l-.11-.33c40.99-13.49 86.54-13.413 139.251.226 46.38 12.001 91.979 32.532 138.5 54.3 48.815 22.836 101.2 47.003 153.525 68.997 44.495 18.783 103.881 40.595 168.7 42.539 54.975 1.55 109.456-12.25 153.409-38.868 15.822-9.585 31.01-21.203 45.14-34.528 18.682-17.602 35.354-37.897 51.475-57.525 13.158-16.018 26.762-32.582 41.418-47.638 8.968-9.219 18.347-17.832 27.876-25.598 70.749-57.682 162.5-81.177 251.112-97.97 78.216-14.83 136.894-21.96 184.663-22.437l.01.348c-47.749.478-106.405 7.607-184.6 22.43-88.568 16.786-180.27 40.267-250.96 97.9-9.518 7.76-18.886 16.362-27.844 25.57-14.645 15.043-28.245 31.604-41.4 47.617-16.129 19.636-32.804 39.94-51.503 57.557-14.147 13.342-29.357 24.975-45.2 34.573-22.366 13.545-47.205 23.767-73.82 30.384-23.12 5.75-47.039 8.651-71.223 8.655"/><path d="M420.887 974.303c-3.218 0-6.433-.052-9.658-.156-27.736-.948-55.8-5.52-85.794-13.987-25.105-7.088-51.789-17.02-81.575-30.37-53.724-23.996-107.89-52.13-151.412-74.733-97.646-50.713-193.122-93.97-287.656-66.605l-.097-.334c43.545-12.605 91.24-10.96 145.81 5.029 49.749 14.579 99.436 39.442 142.103 61.6 43.519 22.603 97.68 50.733 151.394 74.726 64.513 28.91 116.09 42.58 167.241 44.325 53.757 1.752 107.691-11.573 151.867-37.53 15.899-9.34 31.108-20.594 45.203-33.435 19.312-17.58 36.517-37.986 53.154-57.727 12.75-15.125 25.936-30.767 40.01-45.07 8.864-9.014 18.145-17.505 27.587-25.237 32.575-26.685 70.7-47.989 116.551-65.134 37.377-13.973 80.111-25.14 130.646-34.139 71.875-12.799 134.453-17.434 185.995-13.778l-.025.349c-51.514-3.657-114.065.978-185.908 13.774-69.08 12.298-169.848 35.967-247.04 99.2-9.431 7.721-18.703 16.205-27.56 25.208-14.063 14.294-27.245 29.931-39.992 45.054-16.644 19.744-33.856 40.163-53.185 57.758-14.113 12.858-29.34 24.122-45.26 33.48-22.386 13.154-47.027 23.063-73.235 29.454-22.561 5.503-45.788 8.278-69.165 8.278"/><path d="M424.99 975.669c-3.577 0-7.154-.066-10.73-.199-50.992-1.95-103.714-16.613-165.92-46.147-49.186-23.3-96.721-50.444-142.691-76.694l-6.595-3.768C8.51 797.18-96.641 744.214-198.763 770.164l-.086-.338c46.13-11.723 95.988-8.515 152.42 9.808C4.325 796.11 53.57 822.5 99.225 848.56l6.595 3.765c45.965 26.246 93.495 53.391 142.67 76.684 62.16 29.513 114.84 44.165 165.782 46.112 52.524 1.957 105.912-10.898 150.324-36.19 15.979-9.1 31.21-19.98 45.266-32.344 19.98-17.56 37.753-38.102 54.94-57.964 12.309-14.224 25.035-28.935 38.496-42.466a373.277 373.277 0 0127.298-24.877c32.33-26.616 70.867-48.829 114.534-66.02 38.328-15.09 81.644-26.716 128.748-34.552 33.167-5.517 65.511-8.808 96.132-9.783 32.428-1.031 63.111.54 91.193 4.663l-.053.345c-55.13-8.098-118.119-6.374-187.217 5.12-100.652 16.741-182.449 50.555-243.119 100.499-9.351 7.696-18.525 16.059-27.27 24.853-13.454 13.52-26.176 28.224-38.478 42.444-17.198 19.873-34.977 40.425-54.975 58.002-14.074 12.375-29.322 23.272-45.322 32.383-22.415 12.765-46.857 22.36-72.647 28.524a289.087 289.087 0 01-67.134 7.91"/><path d="M429.065 977.887c-3.929 0-7.854-.083-11.776-.247-51.409-2.18-103.668-17.41-164.467-47.934-45.781-22.958-90.07-50.583-132.9-77.303-4.773-2.978-9.527-5.942-14.262-8.888-81.819-50.905-168.648-96.4-256.178-96.4-17.256 0-34.521 1.766-51.8 5.607l-.076-.341c48.747-10.835 100.78-6.07 159.075 14.565 54.33 19.235 105.891 49.35 149.163 76.273 4.735 2.946 9.49 5.91 14.263 8.888 42.824 26.716 87.105 54.338 132.87 77.286 60.756 30.502 112.97 45.722 164.326 47.899 52.02 2.18 103.47-9.874 148.781-34.846a277.207 277.207 0 0045.329-31.254c20.701-17.55 39.076-38.244 56.849-58.253 11.82-13.311 24.042-27.072 36.858-39.812a400.647 400.647 0 0127.01-24.515c63.11-52.214 145.882-87.439 239.364-101.875 32.448-5.008 64.713-7.307 95.89-6.826 32.317.498 63.53 3.984 92.765 10.365l-.077.341c-57.303-12.506-122.497-13.729-188.523-3.535-93.422 14.426-176.138 49.626-239.201 101.798a400.785 400.785 0 00-26.985 24.495c-12.806 12.73-25.023 26.49-36.84 39.794-17.78 20.019-36.166 40.72-56.888 58.288a277.061 277.061 0 01-45.38 31.292c-22.45 12.375-46.698 21.656-72.063 27.591-21.454 5.015-43.308 7.547-65.128 7.547"/><path d="M1158.996 705.833c-61.46-17.542-125.941-21.377-188.655-12.708a474.964 474.964 0 0168.332-4.577c41.32.234 81.835 5.935 120.42 16.951zM433.018 980.64c-4.239 0-8.47-.098-12.702-.296-106.354-4.956-198.588-67.476-287.785-127.937a8165.21 8165.21 0 00-20.264-13.708C18.464 775.531-92.688 713.91-205.873 735.81l-.066-.342c26.767-5.178 54.984-5.886 83.868-2.1 26.042 3.417 53.599 10.62 81.905 21.412 58.116 22.161 112.094 56.334 152.627 83.629a8192.562 8192.562 0 0120.266 13.708c89.156 60.433 181.347 122.925 287.606 127.88 68.963 3.219 139.169-19.99 192.626-63.668 21.475-17.546 40.498-38.411 58.89-58.59 11.288-12.382 22.959-25.188 35.093-37.11 28.618-28.127 61.47-52.51 97.65-72.476a474.722 474.722 0 0161.3-28.322c-58.89 22.384-113.343 56.463-158.707 101.046-12.127 11.918-23.794 24.717-35.078 37.095-18.403 20.19-37.433 41.065-58.925 58.625-50.246 41.052-115.273 64.042-180.164 64.042"/><path d="M446.137 962.74c-5.84 0-11.681-.18-17.522-.55-103.55-6.812-193.74-67.893-280.962-126.957-7.622-5.162-15.504-10.501-23.223-15.683-88.947-59.601-206.223-125.164-324.57-102.927l-.064-.345c27.31-5.13 56.078-5.844 85.504-2.124 26.638 3.371 54.758 10.5 83.58 21.196 46.67 17.32 96.158 43.984 155.744 83.91 7.72 5.183 15.602 10.522 23.225 15.684 87.183 59.04 177.335 120.093 280.787 126.898 67.343 4.242 136.435-16.78 189.568-57.671 21.402-16.474 40.487-36.18 58.942-55.237 11.198-11.563 22.774-23.52 34.783-34.668 28.552-26.51 61.172-49.514 96.95-68.374 35.068-18.483 72.7-32.745 111.85-42.385 79.759-19.643 161.945-19.326 237.682.92l-.09.334c-154.691-41.344-329.816 1.738-446.155 109.76-12.001 11.144-23.575 23.094-34.768 34.657-18.466 19.064-37.558 38.78-58.985 55.268-26.51 20.405-56.598 35.824-89.42 45.83-27.204 8.289-55 12.465-82.855 12.465"/><path d="M459.654 944.912a275.48 275.48 0 01-22.74-.94c-100.429-8.314-188.284-67.82-273.246-125.37-8.886-6.018-18.074-12.242-27.074-18.267-82.572-55.063-206.722-125.645-331-102.968l-.063-.342c27.856-5.08 57.174-5.805 87.14-2.148 27.236 3.322 55.92 10.382 85.254 20.98 48.562 17.546 99.042 44.297 158.862 84.19 9.002 6.024 18.19 12.248 27.076 18.266 84.925 57.525 172.74 117.008 273.08 125.31 65.493 5.42 133.47-13.415 186.502-51.677 21.353-15.404 40.519-33.96 59.054-51.904 11.09-10.734 22.555-21.837 34.42-32.201 115.876-101.273 288.904-142.314 440.809-104.553l-.084.337c-37.45-9.31-76.21-13.826-115.057-13.826-118.606 0-238.212 42.072-325.438 118.303-11.859 10.361-23.324 21.457-34.41 32.191-18.542 17.954-37.715 36.517-59.092 51.939-26.389 19.04-56.083 33.243-88.25 42.211-24.975 6.966-50.365 10.47-75.744 10.47"/><path d="M473.077 935.394c-9.306 0-18.598-.47-27.866-1.414-97.473-9.926-183.105-67.939-265.916-124.046-10.02-6.788-20.383-13.81-30.538-20.584-72.106-47.86-176.063-107.419-286.52-107.419-16.853 0-33.843 1.386-50.91 4.41l-.06-.342c28.405-5.036 58.274-5.767 88.775-2.177 27.838 3.281 57.085 10.268 86.929 20.768 49.725 17.498 102.708 45.13 161.979 84.468 10.156 6.777 20.52 13.799 30.54 20.587 82.776 56.083 168.37 114.071 265.756 123.986 63.766 6.496 130.628-10.155 183.441-45.68 21.329-14.345 40.599-31.756 59.235-48.595 10.957-9.901 22.29-20.14 33.985-29.718 56.637-46.387 127.386-80.247 204.603-97.915 77.405-17.714 157.125-18.177 230.535-1.348l-.076.341c-148.906-34.141-319.59 4.796-434.838 99.193-11.692 9.571-23.018 19.807-33.975 29.708-18.647 16.847-37.924 34.264-59.273 48.623-26.247 17.655-55.544 30.628-87.077 38.562-22.735 5.719-45.757 8.592-68.729 8.592"/><path d="M486.722 927.491c-11.103 0-22.185-.672-33.212-2.01-94.526-11.489-177.908-68.021-258.545-122.69-11.17-7.572-22.718-15.401-34.044-22.935-131.08-86.613-243.557-120.32-343.86-103.048l-.06-.345c28.957-4.984 59.377-5.726 90.412-2.197 28.443 3.232 58.254 10.145 88.604 20.551 51.518 17.662 105.521 45.384 165.096 84.747 11.328 7.537 22.878 15.366 34.047 22.937 80.603 54.649 163.95 111.153 258.392 122.633 62.039 7.54 127.783-6.924 180.377-39.683 21.335-13.29 40.738-29.569 59.503-45.311 10.8-9.059 21.97-18.428 33.466-27.208 56.508-43.165 126.533-74.803 202.503-91.496 76.23-16.748 154.712-17.605 226.962-2.48l-.07.342c-146.016-30.572-314.478 6.29-429.183 93.91-11.493 8.776-22.655 18.141-33.452 27.2-18.776 15.75-38.189 32.035-59.545 45.339-26.1 16.257-55 28.001-85.903 34.9-20.398 4.56-40.978 6.844-61.488 6.844"/><path d="M500.64 919.652c-13.005 0-25.968-.913-38.834-2.738-91.576-13.008-172.686-68.06-251.125-121.298-12.33-8.37-25.08-17.024-37.597-25.323C41.23 683.55-73.35 649.83-177.206 667.206l-.058-.345c29.512-4.935 60.482-5.684 92.048-2.222 29.051 3.183 59.425 10.027 90.279 20.336 53.281 17.804 108.304 45.614 168.213 85.029 12.518 8.3 25.27 16.954 37.6 25.323 78.407 53.217 159.483 108.245 250.979 121.242 60.318 8.568 124.948-3.712 177.319-33.689 21.377-12.235 40.947-27.388 59.876-42.044 10.608-8.212 21.575-16.707 32.839-24.679 56.379-39.94 125.676-69.356 200.402-85.073 75.058-15.788 152.305-17.038 223.39-3.612l-.064.341c-145.322-27.444-307.61 6.517-423.527 88.627-11.256 7.972-22.223 16.46-32.828 24.672-18.936 14.662-38.52 29.823-59.918 42.068-25.957 14.861-54.464 25.372-84.725 31.244-17.954 3.486-36.002 5.228-53.98 5.228"/><path d="M514.905 911.892c-15.035 0-30-1.209-44.8-3.622-88.629-14.475-167.442-68.054-243.659-119.87-13.505-9.18-27.471-18.675-41.198-27.744-109.025-71.425-210.603-107.42-302.764-107.42-18.37 0-36.35 1.428-53.958 4.291l-.055-.344c30.069-4.89 61.59-5.646 93.684-2.25 29.662 3.138 60.6 9.908 91.953 20.123 54.254 17.672 111.898 46.373 171.331 85.307 13.73 9.073 27.696 18.567 41.203 27.751 76.186 51.792 154.963 105.35 243.52 119.811 59.46 9.71 121.346-.125 174.253-27.695 21.468-11.183 41.254-25.222 60.388-38.798 10.372-7.36 21.095-14.966 32.077-22.13 56.253-36.708 124.826-63.905 198.302-78.651 73.887-14.826 149.899-16.467 219.815-4.744l-.055.345c-142.386-23.874-302.503 8.06-417.87 83.343-10.978 7.157-21.698 14.763-32.066 22.119-19.145 13.586-38.941 27.632-60.426 38.826-25.818 13.45-53.928 22.732-83.556 27.58a285.54 285.54 0 01-46.119 3.772"/><path d="M529.602 904.226c-17.23 0-34.347-1.563-51.2-4.687-38.161-7.074-77.854-22.019-121.35-45.687-38.715-21.068-76.595-46.826-113.226-71.739-15.205-10.337-30.927-21.029-46.414-31.181C88.338 679.437-14.66 643.408-109.584 643.408c-19.054 0-37.766 1.449-56.156 4.357l-.055-.345c30.643-4.844 62.72-5.62 95.343-2.309 30.307 3.079 61.82 9.759 93.662 19.856 56.145 17.8 114.82 46.627 174.392 85.672 15.49 10.153 31.214 20.848 46.42 31.189 73.458 49.953 149.414 101.606 234.446 117.37 57.727 10.702 118.526 2.994 171.192-21.698 21.61-10.132 41.668-23.067 61.067-35.574 10.08-6.498 20.5-13.217 31.143-19.559 114.89-68.52 272.928-98.447 412.445-78.108l-.05.345c-28.903-4.214-58.621-6.27-88.566-6.27-114.52 0-232.625 30.043-323.651 84.333-10.637 6.338-21.057 13.057-31.133 19.552-19.406 12.514-39.474 25.452-61.105 35.594-25.675 12.04-53.391 20.085-82.382 23.913a288.714 288.714 0 01-37.826 2.5"/><path d="M545.059 896.669c-19.595 0-39.192-1.975-58.358-5.97-36.834-7.672-75.186-22.693-117.248-45.917-37.453-20.68-74.182-45.729-109.7-69.951-16.427-11.2-33.412-22.785-50.178-33.734C79.819 656.364-47.981 620.68-160.007 637.89l-.053-.344c60.457-9.289 125.163-3.47 192.32 17.299 57.815 17.877 117.537 46.798 177.505 85.958 16.769 10.953 33.756 22.537 50.184 33.741 71.166 48.533 144.754 98.716 226.822 115.816 56.01 11.668 115.722 6.088 168.134-15.703 21.83-9.08 41.327-20.385 61.966-32.359 9.717-5.635 19.761-11.462 29.99-16.982 56.017-30.244 123.137-52.997 194.102-65.807 71.554-12.91 145.093-15.335 212.67-7.007l-.043.344c-26.284-3.239-53.3-4.82-80.577-4.82-114.389 0-233.705 27.772-325.985 77.597-10.225 5.516-20.27 11.343-29.98 16.975-20.652 11.98-40.156 23.292-62.007 32.38-34.542 14.362-72.254 21.69-109.983 21.69"/><path d="M560.909 889.212c-22.203 0-44.395-2.48-65.912-7.477-35.507-8.244-72.515-23.328-113.138-46.105-36.19-20.291-71.749-44.625-106.14-68.162-17.658-12.082-35.916-24.578-53.98-36.329-90.91-59.148-229.942-125.07-376.012-103.247l-.052-.344c61.734-9.223 127.555-3.487 195.634 17.051 59.462 17.944 120.232 46.959 180.62 86.248 18.067 11.754 36.327 24.25 53.986 36.336 68.856 47.118 140.054 95.842 219.162 114.214 54.3 12.61 112.926 9.163 165.074-9.707 22.147-8.014 42.065-18.277 63.153-29.147 9.257-4.771 18.831-9.707 28.552-14.398 55.902-27.009 122.294-47.543 191.998-59.385 70.39-11.956 142.696-14.774 209.096-8.142l-.035.348c-133.52-13.336-287.142 12.527-400.91 67.493-9.713 4.69-19.288 9.623-28.545 14.394-21.095 10.873-41.023 21.144-63.191 29.165-31.547 11.416-65.466 17.194-99.36 17.194"/><path d="M577.64 881.902c-25.139 0-50.253-3.086-74.343-9.282-34.18-8.787-69.84-23.913-109.018-46.237-34.915-19.897-69.294-43.52-102.54-66.365-18.903-12.99-38.448-26.42-57.837-38.99-91.325-59.196-231.809-125.17-382.442-103.284l-.05-.345c63.025-9.156 129.96-3.5 198.946 16.811 61.089 17.985 122.906 47.098 183.736 86.526 19.392 12.573 38.94 26.003 57.844 38.993 66.522 45.712 135.307 92.977 211.448 112.553 52.61 13.531 110.15 12.211 162.015-3.709 22.586-6.934 43.047-16.16 64.71-25.926 8.683-3.914 17.658-7.958 26.737-11.824 55.802-23.77 121.47-42.086 189.899-52.962 69.238-11.006 140.304-14.213 205.522-9.275l-.028.345c-132.506-10.03-280.266 13.228-395.253 62.213-9.08 3.862-18.055 7.91-26.734 11.82-21.674 9.773-42.145 19.002-64.752 25.94-28.18 8.651-58.034 12.994-87.86 12.998"/><path d="M595.395 874.821c-.783 0-1.567 0-2.354-.007-27.831-.205-55.237-4.07-81.448-11.493-32.847-9.295-67.148-24.445-104.874-46.31-33.63-19.493-66.806-42.4-98.89-64.553-20.164-13.924-41.016-28.322-61.763-41.72C166.67 659.46 49.646 603.101-81.031 603.101c-20.3 0-40.905 1.359-61.776 4.309l-.048-.345c64.33-9.09 132.379-3.514 202.258 16.57 62.695 18.017 125.561 47.224 186.852 86.809 20.752 13.402 41.605 27.8 61.773 41.727 64.156 44.298 130.5 90.107 203.662 110.815 50.946 14.422 107.399 15.234 158.954 2.285 23.195-5.827 44.367-14.008 66.782-22.67 7.934-3.068 16.143-6.237 24.415-9.285 100.857-37.171 225.858-58.12 342.656-58.12 15.882 0 31.589.386 47.087 1.17l-.02.348c-129.428-6.561-275.074 14.719-389.602 56.93-8.271 3.044-16.477 6.213-24.41 9.281-22.426 8.666-43.605 16.854-66.824 22.684-24.352 6.116-49.686 9.212-75.333 9.212"/><path d="M614.564 867.95a327.73 327.73 0 01-15.118-.348c-27.295-1.254-54.06-5.9-79.554-13.806-31.502-9.77-64.438-24.92-100.698-46.314-32.33-19.075-64.281-41.26-95.18-62.715-21.453-14.899-43.637-30.3-65.785-44.551-130.217-83.792-270.606-120.5-395.302-103.37l-.048-.344c65.648-9.02 134.81-3.524 205.569 16.33 64.285 18.042 128.2 47.342 189.97 87.091 22.153 14.255 44.34 29.66 65.794 44.555 61.76 42.884 125.624 87.223 195.781 108.983 50.03 15.516 103.94 18.38 155.896 8.279 24.038-4.67 46.15-11.8 69.558-19.35 6.962-2.243 14.161-4.563 21.388-6.806 55.64-17.292 119.853-31.167 185.695-40.121 66.97-9.111 135.563-13.099 198.368-11.542l-.01.348c-126.275-3.13-269.807 16.17-383.952 51.646-7.226 2.243-14.425 4.563-21.384 6.809-23.418 7.55-45.54 14.683-69.596 19.357-20.075 3.905-40.662 5.869-61.395 5.869"/><path d="M635.158 861.392c-36.527 0-72.85-5.869-106.97-17.418-30.14-10.197-61.694-25.32-96.466-46.227-31.014-18.643-61.715-40.097-91.402-60.844-22.777-15.913-46.327-32.369-69.928-47.501C160.666 619.053 42.53 581.874-68.448 581.874c-21.268 0-42.257 1.362-62.892 4.12l-.046-.344c66.978-8.951 137.255-3.535 208.878 16.094 33.266 9.118 66.832 21.356 99.766 36.374 31.692 14.453 63.09 31.61 93.322 50.991 23.607 15.136 47.161 31.592 69.939 47.509 59.318 41.452 120.653 84.31 187.78 107.029 48.415 16.383 101.266 21.322 152.839 14.276 25.201-3.445 48.577-9.498 73.326-15.906 5.66-1.466 11.514-2.985 17.365-4.458 55.62-14.053 119.104-25.706 183.591-33.703 65.888-8.167 133.248-12.548 194.796-12.67v.348c-122.946.244-264.368 17.574-378.303 46.363a2679.212 2679.212 0 00-17.362 4.454c-24.759 6.416-48.142 12.472-73.365 15.917a340.404 340.404 0 01-46.028 3.124"/><path d="M658.399 855.161c-41.902 0-83.56-7.265-121.915-21.38-64.09-23.586-122.869-64.955-179.711-104.965-24.136-16.989-49.097-34.556-74.217-50.601C151.277 594.353 6.322 557.613-125.606 574.766l-.045-.345c68.323-8.88 139.712-3.549 212.185 15.857 33.92 9.083 68.034 21.294 101.393 36.29 32.33 14.538 64.23 31.813 94.816 51.351 25.124 16.052 50.089 33.623 74.232 50.615 56.825 39.993 115.583 81.35 179.63 104.919 46.855 17.243 98.647 24.254 149.781 20.273 26.835-2.086 51.956-7.021 78.55-12.245 3.94-.773 7.9-1.55 11.887-2.323 115.9-22.51 251.746-37.482 372.71-41.087l.01.349c-120.943 3.604-256.768 18.573-372.65 41.079-3.988.773-7.948 1.55-11.884 2.323-26.608 5.228-51.736 10.163-78.592 12.252a361.891 361.891 0 01-28.015 1.087"/><path d="M684.69 849.435c-48.355 0-96.58-9.069-139.907-26.354-61.31-24.463-117.78-64.54-172.39-103.296-25.233-17.908-51.326-36.426-77.674-53.265-132.245-83.824-279.483-120.574-414.592-103.487l-.044-.345c69.6-8.805 142.084-3.518 215.439 15.71 34.536 9.052 69.194 21.239 103.01 36.218 32.94 14.59 65.364 31.954 96.374 51.611 26.356 16.843 52.453 35.364 77.689 53.273 54.593 38.746 111.045 78.812 172.317 103.257 45.357 18.097 96.097 27.183 146.723 26.267 29.175-.522 56.773-4.256 85.99-8.205l4.193-.568c118.216-16.003 251.993-29.053 367.029-35.796l.021.349c-115.03 6.742-248.796 19.789-367.001 35.792l-4.194.568c-29.23 3.953-56.838 7.686-86.031 8.209-2.32.041-4.636.062-6.952.062"/><path d="M716.857 844.413a469.91 469.91 0 01-19.991-.414c-24.205-1.042-48.355-4.159-71.787-9.271-25.013-5.458-49.236-13.207-72-23.025-58.037-25.041-111.724-63.491-163.645-100.673-26.772-19.173-54.453-38.997-82.552-56.881C174.19 570.309 24.669 533.54-114.14 550.62l-.043-.345c70.98-8.735 144.577-3.528 218.75 15.47 35.193 9.018 70.398 21.172 104.637 36.134 33.57 14.67 66.497 32.157 97.865 51.974 28.106 17.891 55.79 37.718 82.566 56.891 51.907 37.175 105.577 75.615 163.583 100.639 43.952 18.963 93.63 30.119 143.664 32.267 29.914 1.282 58.427-.592 89.933-2.98 111.8-8.527 245.142-20.218 361.348-30.51l.028.348c-116.206 10.292-249.544 21.984-361.352 30.51-24.442 1.852-47.087 3.395-69.983 3.395"/><path d="M768.434 840.52c-21.374 0-43.681-.655-66.34-3.03-23.958-2.515-47.711-6.88-70.6-12.977-24.397-6.5-47.989-15.018-70.119-25.32-54.665-25.449-105.469-62.21-154.6-97.762-28.395-20.545-57.755-41.79-87.728-60.785C207.241 570.221 82.234 532.997-39.37 532.997c-23.18 0-46.218 1.351-69.036 4.082l-.041-.345c72.376-8.665 147.088-3.542 222.06 15.23 35.85 8.975 71.603 21.106 106.264 36.047 34.199 14.746 67.627 32.355 99.355 52.34 29.983 19.005 59.346 40.25 87.745 60.798 49.121 35.542 99.91 72.292 154.548 97.727 43.267 20.144 90.573 33.017 140.607 38.265 31.045 3.26 61.45 3.277 89.678 2.814 108.645-1.818 234.959-10.775 355.668-25.219l.042.345c-120.723 14.447-247.047 23.404-355.703 25.222-7.645.126-15.45.216-23.383.216"/><path d="M865.262 838.827c-23.293 0-46.168-.477-68.472-1.439-35.622-1.542-63.216-4.2-89.469-8.612-49.198-8.265-95.508-23.168-137.646-44.294-51.176-25.658-98.974-60.65-145.197-94.488-30.123-22.053-61.27-44.858-93.269-65.052C197.692 541.095 43.603 504.3-102.673 521.333l-.04-.345c73.791-8.592 149.617-3.548 225.373 14.99 36.506 8.937 72.805 21.036 107.889 35.964a721.445 721.445 0 01100.848 52.704c32.007 20.2 63.16 43.01 93.286 65.066 46.213 33.831 93.997 68.816 145.145 94.46 42.11 21.109 88.39 36.001 137.552 44.262 26.236 4.41 53.816 7.063 89.424 8.61 109.945 4.736 234.241-2.34 349.991-19.936l.052.345c-92.29 14.025-190.034 21.37-281.586 21.374"/><path d="M919.906 838.778c-40.313 0-79.874-1.985-118.139-5.938-33-3.417-62.185-8.129-89.218-14.412-48.132-11.18-93.408-28.102-134.578-50.295-47.54-25.622-92.175-58.744-135.34-90.771-31.98-23.732-65.052-48.268-99.257-69.76C209.476 523.76 53.103 486.952-96.939 503.954l-.04-.345c37.66-4.266 76.34-5.137 114.961-2.577 37.894 2.508 76.156 8.338 113.724 17.327 37.163 8.895 74.009 20.966 109.515 35.88 35.443 14.885 69.875 32.741 102.338 53.067 34.218 21.502 67.294 46.042 99.28 69.777 43.155 32.02 87.78 65.132 135.295 90.744 41.143 22.178 86.394 39.087 134.495 50.263 27.02 6.276 56.188 10.989 89.173 14.402 109.958 11.36 232.238 6.157 344.307-14.649l.063.345c-56.194 10.43-114.527 16.982-173.386 19.465a1254.184 1254.184 0 01-52.88 1.125"/><path d="M950.89 839.287c-48.847 0-97.226-3.877-144.15-11.567-31.616-5.186-60.715-11.796-88.963-20.207-46.806-13.941-91.054-32.88-131.51-56.295-43.72-25.303-85.011-56.415-124.938-86.502-33.999-25.616-69.15-52.103-105.793-75.023C221.282 505.87 62.626 469.046-91.206 486.007l-.038-.348c38.277-4.217 77.506-5.095 116.598-2.601 38.549 2.458 77.375 8.215 115.398 17.114a718.224 718.224 0 01111.141 35.792c36.06 14.955 70.992 32.934 103.828 53.433 36.656 22.927 71.815 49.42 105.817 75.04 39.92 30.08 81.201 61.19 124.903 86.481 40.435 23.4 84.656 42.33 131.433 56.26 28.235 8.408 57.323 15.015 88.922 20.197 111.205 18.222 228.3 14.987 338.627-9.361l.076.341c-54.934 12.12-112.072 19.054-169.827 20.6-8.271.22-16.536.332-24.783.332"/><path d="M970.926 840.046c-36.611 0-73.39-2.797-109.729-8.359-47.205-7.227-93.728-19.124-138.273-35.367-45.116-16.453-88.302-37.402-128.361-62.266-39.683-24.63-77.394-53.558-113.866-81.531-36.204-27.769-73.643-56.484-112.995-80.985C233.11 487.738 72.169 450.9-85.472 467.81l-.037-.348c38.9-4.173 78.679-5.057 118.234-2.626 39.209 2.406 78.598 8.09 117.073 16.898 38.475 8.808 76.416 20.82 112.768 35.709 36.673 15.018 72.108 33.118 105.32 53.798 39.366 24.509 76.81 53.231 113.023 81.006 36.465 27.97 74.17 56.892 113.838 81.511 111.68 69.315 244.888 105.689 377.255 105.689 58.385 0 116.586-7.07 172.739-21.513l.087.337c-45.663 11.744-93.137 18.818-141.108 21.023a713.968 713.968 0 01-32.794.752"/></g></svg>