<svg width="172" height="48" version="1.0" xmlns="http://www.w3.org/2000/svg"><text style="line-height:1.25;-inkscape-font-specification:'sans-serif Bold'" x="59.915" y="30.31" font-weight="700" font-size="17.333" font-family="sans-serif" fill="#fff"><tspan x="59.915" y="30.31">THALAMUS</tspan></text><circle cx="24" cy="24" r="6" opacity=".5" stroke="#fff" stroke-width="2" stroke-linecap="round" fill="none"/><rect width="20" height="20" x="14" y="14" rx="4.444" opacity=".5" stroke="#fff" stroke-width="2" stroke-linecap="round" fill="none"/><path d="M10 28h3m-3-4h3m-3-4h3m22 8h3m-3-4h3m-3-4h3M20 10v3m4-3v3m4-3v3m-8 22v3m4-3v3m4-3v3m-4-19v10" opacity=".7" stroke="#fff" stroke-width="2" fill="none"/><circle cx="24" cy="24" r="23" stroke="#3575D2" stroke-width="2" stroke-linecap="round" fill="none"/><path d="M22.487 7.52c-9.082.438-16.03 8.604-15.515 17.588.554 9.644 9.244 17.003 18.798 16.394 10.138-.646 17.862-9.807 17.175-19.871C42.222 11.039 32.64 2.98 22.122 3.735c-11.002.79-19.364 10.76-18.55 21.702.846 11.388 11.173 20.037 22.498 19.17 11.742-.9 20.654-11.563 19.738-23.253C44.862 9.274 33.89.108 21.864 1.07 9.47 2.06.07 13.33 1.073 25.678 1.85 35.26 8.717 43.53 17.949 46.15" stroke="#3575D2" stroke-width="2" fill="none"/></svg>
