<svg width="172" height="48" version="1.0" xmlns="http://www.w3.org/2000/svg"><text style="line-height:1.25;-inkscape-font-specification:'sans-serif Bold'" x="59.915" y="30.31" font-weight="700" font-size="17.333" font-family="sans-serif"><tspan x="59.915" y="30.31">THALAMUS</tspan></text><g fill="none"><circle cx="24" cy="24" r="23" stroke="#ff974c" stroke-width="2" stroke-linecap="round"/><circle cx="24" cy="24" r="6" opacity=".5" stroke="#000" stroke-width="2" stroke-linecap="round"/><rect width="20" height="20" x="14" y="14" rx="4.444" opacity=".5" stroke="#000" stroke-width="2" stroke-linecap="round"/><g stroke="#000" stroke-width="2"><path d="M10 28h3m-3-4h3m-3-4h3M35 28h3m-3-4h3m-3-4h3" opacity=".5"/></g><g stroke="#000" stroke-width="2"><path d="M20 10v3m4-3v3m4-3v3M20 35v3m4-3v3m4-3v3" opacity=".5"/></g><path d="M24 19v10" stroke="#000" stroke-width="2" opacity=".5"/><path d="M-76.091 57.976c-17.656-.851-31.163-16.72-30.16-34.18 1.077-18.741 17.97-33.043 36.542-31.86 19.708 1.256 34.722 19.059 33.386 38.618-1.405 20.584-20.03 36.244-40.479 34.778-21.387-1.534-37.642-20.911-36.06-42.175 1.646-22.13 21.72-38.939 43.736-37.253 22.825 1.748 40.15 22.47 38.37 45.188-1.84 23.476-23.17 41.288-46.547 39.42-24.092-1.923-42.363-23.826-40.416-47.824 1.51-18.621 14.86-34.693 32.806-39.783" transform="matrix(.51442 0 0 -.51457 61.63 37.353)" stroke="#ff974c" stroke-width="3.887"/></g></svg>